:SAMPLES-PER-SECOND 30
:FRAME-RANGE 1-1700
:FULLY-SPECIFIED
:DEGREES
107
root  30.488 39.015 -56.2426 -4.6056 -6.32436 3.04247
RightUpLeg  0.775018 10.2272 -7.56329
RightLeg  39.3332 -11.7598 -10.4083
RightFoot  -10.5178 -0.198802 17.5232
RightToes  -1.16417e-010 0 -3.6325e-017
Spine  8.97181 -0.164766 -4.42497
Spine1  -2.03955 -0.394889 -2.34474
HEad  3.36526 -23.3869 2.4011
LeftShoulder1  1.40523 -0.10426 -32.8916
LeftArm  3.98681 4.35865 -26.3207
LeftForeArm  7.39525 -0.267428 -18.0682
LeftHand  0.193325 0.901006 -5.19056
RightShoulder  6.95557 8.9279 49.0196
RightArm  9.94476 -1.37711 15.9181
RightForeArm  22.523 0.379307 16.568
RightHand  0.277328 3.27538 3.47613
LeftUpLeg  -10.2248 20.9868 6.22267
LeftLeg  18.6741 -5.39983 -2.26416
LeftFoot  -2.36208 0.804546 -10.0482
LeftToes  1.03528e-008 1.55373e-010 -2.26046e-010
108
root  31.0477 39.2215 -55.6028 -4.07268 -7.6629 3.05629
RightUpLeg  -5.8757 7.80166 -7.33262
RightLeg  48.3339 -13.7321 -16.2516
RightFoot  -1.80834 -0.498341 5.82264
RightToes  -1.16417e-010 0 -3.6325e-017
Spine  9.4532 -0.28997 -5.34042
Spine1  -2.30069 -0.684046 -1.91934
HEad  0.989093 -22.6724 3.3592
LeftShoulder1  1.46205 -0.278477 -32.6036
LeftArm  4.36508 1.5263 -27.1661
LeftForeArm  7.05345 0.499594 -18.2803
LeftHand  0.18432 1.01012 -5.09752
RightShoulder  6.94086 8.94246 48.8582
RightArm  8.46086 -1.86099 15.9375
RightForeArm  23.8018 -2.43733 16.8085
RightHand  0.329575 3.38637 4.11408
LeftUpLeg  -8.73335 21.6195 6.14171
LeftLeg  17.5473 -4.35015 -2.97643
LeftFoot  -3.12911 0.690708 -9.34625
LeftToes  1.03528e-008 1.55373e-010 -2.26046e-010
109
root  31.5269 39.3555 -54.9959 -3.80546 -8.34793 2.84254
RightUpLeg  -10.1691 4.87331 -6.60029
RightLeg  51.4674 -10.7642 -14.4664
RightFoot  -2.47173 -0.644728 8.08184
RightToes  -1.16417e-010 0 -3.6325e-017
Spine  10.3096 -0.620534 -6.38391
Spine1  -2.73617 -1.315 -1.24988
HEad  -0.210399 -22.0003 4.09366
LeftShoulder1  1.51538 -0.429275 -32.4801
LeftArm  5.05758 -1.46555 -27.8813
LeftForeArm  6.32591 0.981155 -18.4808
LeftHand  0.198378 0.905474 -5.32875
RightShoulder  6.76392 8.61288 48.9097
RightArm  9.24393 -2.26366 15.8198
RightForeArm  26.183 -3.58507 16.8661
RightHand  0.336902 3.57731 4.10705
LeftUpLeg  -7.42647 20.3274 6.37595
LeftLeg  16.9606 -2.24421 -3.58587
LeftFoot  -4.04041 0.585728 -8.79001
LeftToes  1.03528e-008 1.55373e-010 -2.26046e-010
110
root  31.9561 39.4868 -54.3755 -3.46515 -8.69756 2.49044
RightUpLeg  -13.5025 1.87629 -5.04778
RightLeg  50.9919 -7.45535 -10.101
RightFoot  -2.71976 -0.68988 8.8881
RightToes  -1.16417e-010 0 -3.6325e-017
Spine  10.7691 -1.0444 -7.27023
Spine1  -2.89895 -1.98974 -0.262566
HEad  -0.888733 -21.4315 4.80353
LeftShoulder1  1.57902 -0.610947 -32.3283
LeftArm  5.25797 -4.8661 -28.9027
LeftForeArm  6.28592 1.81791 -18.6334
LeftHand  0.185486 1.02779 -5.15265
RightShoulder  6.472 8.0722 48.9876
RightArm  10.1954 -2.75508 15.7085
RightForeArm  27.2759 -3.66918 16.9126
RightHand  0.334269 3.65576 4.03194
LeftUpLeg  -6.3008 18.3209 6.44848
LeftLeg  16.2053 0.21084 -3.77626
LeftFoot  -4.68071 0.504875 -8.18542
LeftToes  1.03528e-008 1.55373e-010 -2.26046e-010
111
root  32.3366 39.6041 -53.7514 -3.17701 -9.44327 2.19214
RightUpLeg  -16.0106 -0.0187888 -2.87834
RightLeg  48.0229 -7.96141 -9.68689
RightFoot  -3.35576 -0.720528 9.97007
RightToes  -1.16417e-010 0 -3.6325e-017
Spine  10.9402 -1.30112 -7.94224
Spine1  -2.85777 -2.39549 0.608255
HEad  -0.787094 -20.9164 5.49856
LeftShoulder1  1.63131 -0.7882 -31.9642
LeftArm  5.88722 -8.22531 -30.3315
LeftForeArm  6.17745 2.20712 -18.7436
LeftHand  0.154355 1.22961 -4.56006
RightShoulder  6.19886 7.55698 49.1086
RightArm  10.6526 -3.4 15.4675
RightForeArm  26.6952 -2.99509 16.9337
RightHand  0.369626 3.77715 4.41669
LeftUpLeg  -5.03933 16.5977 6.44338
LeftLeg  15.3451 2.68079 -3.84789
LeftFoot  -5.19711 0.427303 -7.37529
LeftToes  1.03528e-008 1.55373e-010 -2.26046e-010
112
root  32.6983 39.7431 -53.1286 -2.85983 -10.618 1.88371
RightUpLeg  -17.3217 -1.32913 -0.512958
RightLeg  41.9273 -10.5 -10.2145
RightFoot  -4.13451 -0.64059 9.7015
RightToes  -1.16417e-010 0 -3.6325e-017
Spine  10.8451 -1.58175 -8.20653
Spine1  -2.78272 -2.71897 1.40458
HEad  0.301887 -20.0074 5.88723
LeftShoulder1  1.66293 -0.898973 -31.7271
LeftArm  4.68429 -10.9745 -31.4766
LeftForeArm  7.65304 2.36218 -18.5829
LeftHand  0.161734 1.02402 -4.50845
RightShoulder  5.98033 7.13893 49.2406
RightArm  11.904 -3.74836 15.1718
RightForeArm  24.5658 -1.6059 17.0441
RightHand  0.421127 3.86927 5.01034
LeftUpLeg  -3.51559 15.1695 6.34391
LeftLeg  13.9491 5.24341 -3.79444
LeftFoot  -5.55953 0.379427 -6.84914
LeftToes  1.03528e-008 1.55373e-010 -2.26046e-010
113
root  33.0198 39.8451 -52.4944 -2.62448 -12.0161 1.65929
RightUpLeg  -17.1769 -2.93822 1.89013
RightLeg  32.8182 -13.8341 -9.65547
RightFoot  -4.66405 -0.541628 8.72239
RightToes  -1.16417e-010 0 -3.6325e-017
Spine  10.4927 -1.93691 -8.34101
Spine1  -2.49519 -3.09643 2.12904
HEad  1.9436 -18.7596 5.9839
LeftShoulder1  1.69743 -0.997131 -31.6709
LeftArm  3.424 -13.115 -32.2652
LeftForeArm  9.26759 1.87671 -18.3329
LeftHand  0.180634 0.698429 -4.61662
RightShoulder  5.96103 7.13877 49.0825
RightArm  12.6284 -3.65393 15.1215
RightForeArm  23.6416 -0.657074 17.0203
RightHand  0.486469 4.09309 5.67385
LeftUpLeg  -1.9944 14.4048 6.12673
LeftLeg  12.7879 7.42456 -3.66767
LeftFoot  -6.0748 0.334965 -6.48771
LeftToes  1.03528e-008 1.55373e-010 -2.26046e-010
114
root  33.311 39.8497 -51.8275 -2.68264 -13.4484 1.6066
RightUpLeg  -15.4627 -6.26134 4.32782
RightLeg  21.3547 -13.2944 -5.86432
RightFoot  -4.92435 -0.530837 8.85283
RightToes  -1.16417e-010 0 -3.6325e-017
Spine  10.0346 -2.35785 -8.09935
Spine1  -1.91518 -3.47619 2.38174
HEad  3.8613 -17.5516 5.69231
LeftShoulder1  1.74938 -1.13672 -31.6577
LeftArm  5.32707 -14.686 -32.9045
LeftForeArm  8.22941 -0.243252 -18.204
LeftHand  0.190981 0.447333 -4.58994
RightShoulder  6.13545 7.5356 48.6996
RightArm  13.9516 -3.28928 15.0435
RightForeArm  22.7699 0.936398 16.8732
RightHand  0.55141 4.20412 6.38328
LeftUpLeg  -0.778613 15.2375 5.80591
LeftLeg  13.0759 7.92289 -3.365
LeftFoot  -7.27394 0.259996 -6.09121
LeftToes  1.03528e-008 1.55373e-010 -2.26046e-010
